<?xml version="1.0" encoding="UTF-8" standalone="no"?>
<!DOCTYPE svg PUBLIC "-//W3C//DTD SVG 1.1//EN" "http://www.w3.org/Graphics/SVG/1.1/DTD/svg11.dtd">
<svg width="100%" height="100%" viewBox="0 0 71 58" version="1.1" xmlns="http://www.w3.org/2000/svg" xmlns:xlink="http://www.w3.org/1999/xlink" xml:space="preserve" xmlns:serif="http://www.serif.com/" style="fill-rule:evenodd;clip-rule:evenodd;stroke-linejoin:round;stroke-miterlimit:2;">
    <g transform="matrix(0.5,0,0,0.5,0,0)">
        <path d="M42.345,115L0,115L0,72.568L14.996,72.568L14.996,100.007L42.345,100.007L42.345,115ZM99.655,100.007L127.004,100.007L127.004,72.568L142,72.568L142,115L99.655,115L99.655,100.007ZM99.655,0L142,0L142,42.432L127.004,42.432L127.004,14.993L99.655,14.993L99.655,0ZM42.345,0L42.345,14.993L14.996,14.993L14.996,42.432L0,42.432L0,0L42.345,0Z" style="fill:rgb(49,49,49);"/>
    </g>
</svg>
